solid smACISEntity
facet normal 0 -6.12303e-017 -1
  outer loop
    vertex 1.07959 1.07959 0
    vertex 19.4327 1.07959 0
    vertex 1.07959 -1.07959 0
  endloop
endfacet
facet normal 0 -6.12303e-017 -1
  outer loop
    vertex 1.07959 -1.07959 0
    vertex 19.4327 1.07959 0
    vertex 19.4327 -1.07959 0
  endloop
endfacet
facet normal 0 -6.12303e-017 -1
  outer loop
    vertex -1.07959 -1.07959 0
    vertex -19.4327 -1.07959 0
    vertex -1.07959 1.07959 0
  endloop
endfacet
facet normal 0 -6.12303e-017 -1
  outer loop
    vertex -1.07959 1.07959 0
    vertex -19.4327 -1.07959 0
    vertex -19.4327 1.07959 0
  endloop
endfacet
facet normal 0 -1 6.12303e-017
  outer loop
    vertex 19.4327 -1.07959 0
    vertex 19.4327 -1.07959 19.4327
    vertex 1.07959 -1.07959 0
  endloop
endfacet
facet normal 0 -1 6.12303e-017
  outer loop
    vertex 1.07959 -1.07959 0
    vertex 19.4327 -1.07959 19.4327
    vertex -19.4327 -1.07959 19.4327
  endloop
endfacet
facet normal 0 -1 6.12303e-017
  outer loop
    vertex 1.07959 -1.07959 0
    vertex -19.4327 -1.07959 19.4327
    vertex -1.07959 -1.07959 0
  endloop
endfacet
facet normal 0 -1 6.12303e-017
  outer loop
    vertex -1.07959 -1.07959 0
    vertex -19.4327 -1.07959 19.4327
    vertex -19.4327 -1.07959 0
  endloop
endfacet
facet normal 0 -1 6.12303e-017
  outer loop
    vertex -1.07959 -1.07959 0
    vertex -1.07959 -1.07959 -19.4327
    vertex 1.07959 -1.07959 0
  endloop
endfacet
facet normal 0 -1 6.12303e-017
  outer loop
    vertex 1.07959 -1.07959 0
    vertex -1.07959 -1.07959 -19.4327
    vertex 1.07959 -1.07959 -19.4327
  endloop
endfacet
facet normal -1 0 0
  outer loop
    vertex -19.4327 1.07959 19.4327
    vertex -19.4327 1.07959 0
    vertex -19.4327 -1.07959 19.4327
  endloop
endfacet
facet normal -1 0 0
  outer loop
    vertex -19.4327 -1.07959 19.4327
    vertex -19.4327 1.07959 0
    vertex -19.4327 -1.07959 0
  endloop
endfacet
facet normal 0 1 -6.12303e-017
  outer loop
    vertex 19.4327 1.07959 0
    vertex 1.07959 1.07959 0
    vertex 19.4327 1.07959 19.4327
  endloop
endfacet
facet normal 0 1 -6.12303e-017
  outer loop
    vertex 19.4327 1.07959 19.4327
    vertex 1.07959 1.07959 0
    vertex -19.4327 1.07959 19.4327
  endloop
endfacet
facet normal 0 1 -6.12303e-017
  outer loop
    vertex -19.4327 1.07959 19.4327
    vertex 1.07959 1.07959 0
    vertex -1.07959 1.07959 0
  endloop
endfacet
facet normal 0 1 -6.12303e-017
  outer loop
    vertex -1.07959 1.07959 0
    vertex 1.07959 1.07959 0
    vertex 1.07959 1.07959 -19.4327
  endloop
endfacet
facet normal 0 1 -6.12303e-017
  outer loop
    vertex -1.07959 1.07959 0
    vertex 1.07959 1.07959 -19.4327
    vertex -1.07959 1.07959 -19.4327
  endloop
endfacet
facet normal 0 1 -6.12303e-017
  outer loop
    vertex -1.07959 1.07959 0
    vertex -19.4327 1.07959 0
    vertex -19.4327 1.07959 19.4327
  endloop
endfacet
facet normal 1 0 0
  outer loop
    vertex 19.4327 1.07959 0
    vertex 19.4327 1.07959 19.4327
    vertex 19.4327 -1.07959 0
  endloop
endfacet
facet normal 1 0 0
  outer loop
    vertex 19.4327 -1.07959 0
    vertex 19.4327 1.07959 19.4327
    vertex 19.4327 -1.07959 19.4327
  endloop
endfacet
facet normal 0 6.12303e-017 1
  outer loop
    vertex 19.4327 1.07959 19.4327
    vertex -19.4327 1.07959 19.4327
    vertex 19.4327 -1.07959 19.4327
  endloop
endfacet
facet normal 0 6.12303e-017 1
  outer loop
    vertex 19.4327 -1.07959 19.4327
    vertex -19.4327 1.07959 19.4327
    vertex -19.4327 -1.07959 19.4327
  endloop
endfacet
facet normal 8.23994e-018 0 -1
  outer loop
    vertex -1.07959 1.07959 -19.4327
    vertex 1.07959 1.07959 -19.4327
    vertex -1.07959 -1.07959 -19.4327
  endloop
endfacet
facet normal 8.23994e-018 0 -1
  outer loop
    vertex -1.07959 -1.07959 -19.4327
    vertex 1.07959 1.07959 -19.4327
    vertex 1.07959 -1.07959 -19.4327
  endloop
endfacet
facet normal 1 3.34747e-017 -8.23994e-018
  outer loop
    vertex 1.07959 -1.07959 0
    vertex 1.07959 -1.07959 -19.4327
    vertex 1.07959 1.07959 0
  endloop
endfacet
facet normal 1 3.34747e-017 -8.23994e-018
  outer loop
    vertex 1.07959 1.07959 0
    vertex 1.07959 -1.07959 -19.4327
    vertex 1.07959 1.07959 -19.4327
  endloop
endfacet
facet normal -1 -3.34747e-017 8.23994e-018
  outer loop
    vertex -1.07959 1.07959 0
    vertex -1.07959 1.07959 -19.4327
    vertex -1.07959 -1.07959 0
  endloop
endfacet
facet normal -1 -3.34747e-017 8.23994e-018
  outer loop
    vertex -1.07959 -1.07959 0
    vertex -1.07959 1.07959 -19.4327
    vertex -1.07959 -1.07959 -19.4327
  endloop
endfacet
endsolid smACISEntity
