mtllib makevr_0002.mtl
v -103.923 100.835 3.08801
v -103.923 -100.835 3.08801
v -100.834 -100.834 3.08803
v -100.835 100.835 3.08793
v -103.923 -100.835 3.08801
v -103.923 -100.835 204.758
v -100.835 -100.835 204.758
v -100.834 -100.834 100.835
v -100.834 -100.834 3.08803
v -103.923 100.835 204.758
v -103.923 100.835 3.08801
v -100.835 100.835 3.08793
v -100.834 100.835 100.834
v -100.835 100.835 204.758
v -103.923 -100.835 204.758
v -103.923 100.835 204.758
v -100.835 100.835 204.758
v -100.835 3.08774 204.758
v -100.835 -3.08807 204.758
v -100.835 -100.835 204.758
v -100.835 100.835 204.758
v -100.834 100.835 100.834
v -100.835 100.835 3.08793
v -100.835 103.923 3.08794
v -100.835 103.923 204.758
v -100.835 100.835 3.08793
v -100.834 -100.834 3.08803
v -100.834 -100.834 1.93579e-005
v -100.834 100.835 1.93579e-005
v -103.923 100.835 3.08801
v -103.923 100.835 204.758
v -103.923 -100.835 204.758
v -103.923 -100.835 3.08801
v -103.923 103.923 207.846
v -103.923 103.923 1.96499e-005
v -103.923 -103.923 1.96499e-005
v -103.923 -103.923 207.846
v 103.923 100.835 204.758
v 103.923 -100.835 204.758
v 100.835 -100.835 204.758
v 100.835 -3.08806 204.758
v 100.835 3.08773 204.758
v 100.835 100.835 204.758
v 100.835 103.923 3.08791
v 100.835 103.923 204.758
v -100.835 103.923 204.758
v -100.835 103.923 3.08794
v 103.923 103.923 207.846
v 103.923 103.923 0
v -103.923 103.923 1.96499e-005
v -103.923 103.923 207.846
v 103.923 -100.835 204.758
v 103.923 -100.835 3.08786
v 100.835 -100.834 3.088
v 100.835 -100.834 100.835
v 100.835 -100.835 204.758
v 103.923 100.835 204.758
v 103.923 100.835 3.08787
v 103.923 -100.835 3.08786
v 103.923 -100.835 204.758
v 103.923 -103.923 207.846
v 103.923 -103.923 1.21839e-012
v 103.923 103.923 0
v 103.923 103.923 207.846
v 103.923 100.835 3.08787
v 103.923 100.835 204.758
v 100.835 100.835 204.758
v 100.835 100.835 100.835
v 100.835 100.835 3.08791
v -100.834 -100.834 100.835
v -100.835 -100.835 204.758
v -100.835 -103.923 204.758
v -100.835 -103.923 3.08803
v -100.834 -100.834 3.08803
v 100.835 100.835 3.08791
v -100.835 100.835 3.08793
v -100.834 100.835 1.93579e-005
v 100.835 100.835 2.91968e-007
v 103.923 -100.835 3.08786
v 103.923 100.835 3.08787
v 100.835 100.835 3.08791
v 100.835 -100.834 3.088
v -100.835 -100.835 204.758
v 100.835 -100.835 204.758
v 100.835 -103.923 204.758
v -100.835 -103.923 204.758
v -100.835 -3.08807 204.758
v -100.835 3.08774 204.758
v -100.835 100.835 204.758
v -100.835 100.835 207.846
v -100.835 -100.835 207.846
v -100.835 -100.835 204.758
v -100.834 -100.834 3.08803
v 100.835 -100.834 3.088
v 100.835 -100.834 2.91961e-007
v -100.834 -100.834 1.93579e-005
v 100.835 100.835 100.835
v 100.835 100.835 204.758
v 100.835 103.923 204.758
v 100.835 103.923 3.08791
v 100.835 100.835 3.08791
v 100.835 100.835 204.758
v -100.835 100.835 204.758
v -100.835 103.923 204.758
v 100.835 103.923 204.758
v 100.835 -100.835 204.758
v 100.835 -100.834 100.835
v 100.835 -100.834 3.088
v 100.835 -103.923 3.088
v 100.835 -103.923 204.758
v 100.835 -100.835 204.758
v -100.835 -100.835 204.758
v -100.835 -100.835 207.846
v 100.835 -100.835 207.846
v 100.835 -100.834 3.088
v -100.834 -100.834 3.08803
v -100.835 -103.923 3.08803
v 100.835 -103.923 3.088
v 100.835 100.835 2.91968e-007
v -100.834 100.835 1.93579e-005
v -100.834 -100.834 1.93579e-005
v 100.835 -100.834 2.91961e-007
v 103.923 103.923 0
v 103.923 -103.923 1.21839e-012
v -103.923 -103.923 1.96499e-005
v -103.923 103.923 1.96499e-005
v 100.835 -100.835 207.846
v -100.835 -100.835 207.846
v -100.835 100.835 207.846
v 100.835 100.835 207.846
v 103.923 -103.923 207.846
v 103.923 103.923 207.846
v -103.923 103.923 207.846
v -103.923 -103.923 207.846
v -100.835 100.835 3.08793
v 100.835 100.835 3.08791
v 100.835 103.923 3.08791
v -100.835 103.923 3.08794
v 100.835 3.08773 204.758
v 100.835 -3.08806 204.758
v 100.835 -100.835 204.758
v 100.835 -100.835 207.846
v 100.835 100.835 207.846
v 100.835 100.835 204.758
v 100.835 -103.923 204.758
v 100.835 -103.923 3.088
v -100.835 -103.923 3.08803
v -100.835 -103.923 204.758
v -103.923 -103.923 207.846
v -103.923 -103.923 1.96499e-005
v 103.923 -103.923 1.21839e-012
v 103.923 -103.923 207.846
v 100.835 -100.834 3.088
v 100.835 100.835 3.08791
v 100.835 100.835 2.91968e-007
v 100.835 -100.834 2.91961e-007
v -100.835 100.835 204.758
v 100.835 100.835 204.758
v 100.835 100.835 207.846
v -100.835 100.835 207.846
vn 5.22262e-008 3.42507e-008 1
vn 5.22262e-008 3.42507e-008 1
vn 5.22262e-008 3.42507e-008 1
vn 5.22262e-008 3.42507e-008 1
vn -2.16293e-007 1 -3.42507e-008
vn -2.16293e-007 1 -3.42507e-008
vn -2.16293e-007 1 -3.42507e-008
vn -2.16293e-007 1 -3.42507e-008
vn -2.16293e-007 1 -3.42507e-008
vn 2.16293e-007 -1 3.42507e-008
vn 2.16293e-007 -1 3.42507e-008
vn 2.16293e-007 -1 3.42507e-008
vn 2.16293e-007 -1 3.42507e-008
vn 2.16293e-007 -1 3.42507e-008
vn -5.22262e-008 -3.42507e-008 -1
vn -5.22262e-008 -3.42507e-008 -1
vn -5.22262e-008 -3.42507e-008 -1
vn -5.22262e-008 -3.42507e-008 -1
vn -5.22262e-008 -3.42507e-008 -1
vn -5.22262e-008 -3.42507e-008 -1
vn 1 -1.51889e-007 1.86587e-008
vn 1 -1.51889e-007 1.86587e-008
vn 1 -1.51889e-007 1.86587e-008
vn 1 -1.51889e-007 1.86587e-008
vn 1 -1.51889e-007 1.86587e-008
vn 1 4.05657e-007 1.09136e-006
vn 1 4.05657e-007 1.09136e-006
vn 1 4.05657e-007 1.09136e-006
vn 1 4.05657e-007 1.09136e-006
vn -1 3.76087e-008 -4.72703e-008
vn -1 3.76087e-008 -4.72703e-008
vn -1 3.76087e-008 -4.72703e-008
vn -1 3.76087e-008 -4.72703e-008
vn -1 3.76087e-008 -4.72703e-008
vn -1 3.76087e-008 -4.72703e-008
vn -1 3.76087e-008 -4.72703e-008
vn -1 3.76087e-008 -4.72703e-008
vn -1.29465e-007 5.22746e-008 -1
vn -1.29465e-007 5.22746e-008 -1
vn -1.29465e-007 5.22746e-008 -1
vn -1.29465e-007 5.22746e-008 -1
vn -1.29465e-007 5.22746e-008 -1
vn -1.29465e-007 5.22746e-008 -1
vn -7.52174e-008 1 5.12451e-017
vn -7.52174e-008 1 5.12451e-017
vn -7.52174e-008 1 5.12451e-017
vn -7.52174e-008 1 5.12451e-017
vn -7.52174e-008 1 5.12451e-017
vn -7.52174e-008 1 5.12451e-017
vn -7.52174e-008 1 5.12451e-017
vn -7.52174e-008 1 5.12451e-017
vn -5.52784e-008 1 5.22746e-008
vn -5.52784e-008 1 5.22746e-008
vn -5.52784e-008 1 5.22746e-008
vn -5.52784e-008 1 5.22746e-008
vn -5.52784e-008 1 5.22746e-008
vn 1 -3.76087e-008 4.72703e-008
vn 1 -3.76087e-008 4.72703e-008
vn 1 -3.76087e-008 4.72703e-008
vn 1 -3.76087e-008 4.72703e-008
vn 1 -3.76087e-008 4.72703e-008
vn 1 -3.76087e-008 4.72703e-008
vn 1 -3.76087e-008 4.72703e-008
vn 1 -3.76087e-008 4.72703e-008
vn 5.52784e-008 -1 -5.22746e-008
vn 5.52784e-008 -1 -5.22746e-008
vn 5.52784e-008 -1 -5.22746e-008
vn 5.52784e-008 -1 -5.22746e-008
vn 5.52784e-008 -1 -5.22746e-008
vn 1 -5.75136e-008 5.56778e-009
vn 1 -5.75136e-008 5.56778e-009
vn 1 -5.75136e-008 5.56778e-009
vn 1 -5.75136e-008 5.56778e-009
vn 1 -5.75136e-008 5.56778e-009
vn 5.18482e-007 -1 8.53312e-007
vn 5.18482e-007 -1 8.53312e-007
vn 5.18482e-007 -1 8.53312e-007
vn 5.18482e-007 -1 8.53312e-007
vn 1.29465e-007 -5.22746e-008 1
vn 1.29465e-007 -5.22746e-008 1
vn 1.29465e-007 -5.22746e-008 1
vn 1.29465e-007 -5.22746e-008 1
vn -1.36243e-007 2.44964e-008 -1
vn -1.36243e-007 2.44964e-008 -1
vn -1.36243e-007 2.44964e-008 -1
vn -1.36243e-007 2.44964e-008 -1
vn 1 -2.08488e-008 6.15635e-008
vn 1 -2.08488e-008 6.15635e-008
vn 1 -2.08488e-008 6.15635e-008
vn 1 -2.08488e-008 6.15635e-008
vn 1 -2.08488e-008 6.15635e-008
vn 1 -2.08488e-008 6.15635e-008
vn -5.18482e-007 1 -8.53312e-007
vn -5.18482e-007 1 -8.53312e-007
vn -5.18482e-007 1 -8.53312e-007
vn -5.18482e-007 1 -8.53312e-007
vn -1 1.51889e-007 -1.86587e-008
vn -1 1.51889e-007 -1.86587e-008
vn -1 1.51889e-007 -1.86587e-008
vn -1 1.51889e-007 -1.86587e-008
vn -1 1.51889e-007 -1.86587e-008
vn -1.23152e-007 4.5975e-008 -1
vn -1.23152e-007 4.5975e-008 -1
vn -1.23152e-007 4.5975e-008 -1
vn -1.23152e-007 4.5975e-008 -1
vn -1 5.75136e-008 -5.56778e-009
vn -1 5.75136e-008 -5.56778e-009
vn -1 5.75136e-008 -5.56778e-009
vn -1 5.75136e-008 -5.56778e-009
vn -1 5.75136e-008 -5.56778e-009
vn -9.19773e-008 1 2.33925e-008
vn -9.19773e-008 1 2.33925e-008
vn -9.19773e-008 1 2.33925e-008
vn -9.19773e-008 1 2.33925e-008
vn 1.36243e-007 -2.44964e-008 1
vn 1.36243e-007 -2.44964e-008 1
vn 1.36243e-007 -2.44964e-008 1
vn 1.36243e-007 -2.44964e-008 1
vn -9.45405e-008 -2.03717e-015 -1
vn -9.45405e-008 -2.03717e-015 -1
vn -9.45405e-008 -2.03717e-015 -1
vn -9.45405e-008 -2.03717e-015 -1
vn -9.45405e-008 -2.03717e-015 -1
vn -9.45405e-008 -2.03717e-015 -1
vn -9.45405e-008 -2.03717e-015 -1
vn -9.45405e-008 -2.03717e-015 -1
vn 9.45405e-008 2.03717e-015 1
vn 9.45405e-008 2.03717e-015 1
vn 9.45405e-008 2.03717e-015 1
vn 9.45405e-008 2.03717e-015 1
vn 9.45405e-008 2.03717e-015 1
vn 9.45405e-008 2.03717e-015 1
vn 9.45405e-008 2.03717e-015 1
vn 9.45405e-008 2.03717e-015 1
vn 1.23152e-007 -4.5975e-008 1
vn 1.23152e-007 -4.5975e-008 1
vn 1.23152e-007 -4.5975e-008 1
vn 1.23152e-007 -4.5975e-008 1
vn -1 2.08488e-008 -6.15635e-008
vn -1 2.08488e-008 -6.15635e-008
vn -1 2.08488e-008 -6.15635e-008
vn -1 2.08488e-008 -6.15635e-008
vn -1 2.08488e-008 -6.15635e-008
vn -1 2.08488e-008 -6.15635e-008
vn 7.52174e-008 -1 -5.12451e-017
vn 7.52174e-008 -1 -5.12451e-017
vn 7.52174e-008 -1 -5.12451e-017
vn 7.52174e-008 -1 -5.12451e-017
vn 7.52174e-008 -1 -5.12451e-017
vn 7.52174e-008 -1 -5.12451e-017
vn 7.52174e-008 -1 -5.12451e-017
vn 7.52174e-008 -1 -5.12451e-017
vn -1 -4.05657e-007 -1.09136e-006
vn -1 -4.05657e-007 -1.09136e-006
vn -1 -4.05657e-007 -1.09136e-006
vn -1 -4.05657e-007 -1.09136e-006
vn 9.19773e-008 -1 -2.33925e-008
vn 9.19773e-008 -1 -2.33925e-008
vn 9.19773e-008 -1 -2.33925e-008
vn 9.19773e-008 -1 -2.33925e-008
vt 0.5 0
vt 0.5 0.5
vt 1 0.499998
vt 0.999837 8.9407e-007
vt 0.5 0.5
vt 1 0.5
vt 1 0.00016281
vt 0.742343 1.65105e-005
vt 0.5 0
vt 0.5 0.5
vt 1 0.5
vt 1 0.000132084
vt 0.757658 0
vt 0.5 0.000132382
vt 1 0.5
vt 1 4.76837e-007
vt 0.500019 0
vt 0.500019 0.242345
vt 0.5 0.257656
vt 0.500018 0.5
vt 0.5 0.499909
vt 0.757658 0.499986
vt 1 0.5
vt 1 2.68221e-007
vt 0.5 0
vt 0.500015 0
vt 0.5 0.5
vt 1 0.5
vt 1 0
vt 0.992571 0.00742877
vt 0.507429 0.00742877
vt 0.507429 0.492571
vt 0.992571 0.492571
vt 0.5 0
vt 1 0
vt 1 0.5
vt 0.5 0.5
vt 0.5 0
vt 0.5 0.5
vt 0.99998 0.5
vt 1 0.257656
vt 0.999995 0.242345
vt 0.999993 0
vt 0.992572 0.0074285
vt 0.507429 0.0074285
vt 0.507429 0.492572
vt 0.992572 0.492572
vt 0.5 0
vt 1 0
vt 1 0.5
vt 0.5 0.5
vt 1 0
vt 0.5 2.98023e-008
vt 0.5 0.499954
vt 0.742343 0.5
vt 1 0.499932
vt 0.992572 0.00742826
vt 0.507428 0.00742826
vt 0.507428 0.492572
vt 0.992572 0.492572
vt 1 0.5
vt 0.5 0.5
vt 0.5 0
vt 1 0
vt 1 2.98023e-008
vt 0.5 0
vt 0.5 0.499931
vt 0.757657 0.5
vt 1 0.499932
vt 0.757657 0
vt 0.5 0.000137627
vt 0.5 0.5
vt 1 0.5
vt 1 1.36495e-005
vt 0.500006 0
vt 0.5 0.5
vt 0.999995 0.499998
vt 1 7.7486e-007
vt 1 0.5
vt 1 0
vt 0.500007 1.19209e-006
vt 0.5 0.499998
vt 1 4.41074e-006
vt 0.5 0
vt 0.5 0.499996
vt 1 0.5
vt 1 0.257656
vt 0.999992 0.242345
vt 0.999991 0
vt 0.5 0
vt 0.5 0.5
vt 1 0.5
vt 1 0.5
vt 0.999994 0
vt 0.5 4.47035e-007
vt 0.500005 0.5
vt 0.742343 0.499986
vt 1 0.499923
vt 1 0
vt 0.5 2.68221e-007
vt 0.5 0.5
vt 0.5 0.499996
vt 1 0.5
vt 1 3.8743e-006
vt 0.5 0
vt 1 0.000151545
vt 0.742343 0
vt 0.5 1.36495e-005
vt 0.5 0.5
vt 1 0.5
vt 0.5 0
vt 0.500006 0.5
vt 1 0.5
vt 0.999995 0
vt 1 0
vt 0.500002 1.83284e-005
vt 0.5 0.5
vt 1 0.499996
vt 0.992571 0.00742942
vt 0.507431 0.00742969
vt 0.507431 0.49257
vt 0.992571 0.49257
vt 1 0
vt 1 0.5
vt 0.5 0.5
vt 0.5 5.96046e-008
vt 0.992572 0.492572
vt 0.507428 0.492572
vt 0.507428 0.00742835
vt 0.992572 0.00742829
vt 1 0.5
vt 1 0
vt 0.5 5.96046e-008
vt 0.5 0.5
vt 0.5 0.5
vt 1 0.499982
vt 1 0
vt 0.5 3.8743e-006
vt 0.500009 0.242345
vt 0.5 0.257656
vt 0.5 0.5
vt 1 0.5
vt 1 0
vt 0.500009 0
vt 0.992571 0.00742859
vt 0.507429 0.00742862
vt 0.507429 0.492571
vt 0.992571 0.492571
vt 1 0.5
vt 0.5 0.5
vt 0.5 0
vt 1 0
vt 1 0.5
vt 0.999985 0
vt 0.5 0
vt 0.5 0.5
vt 0.999994 0.5
vt 1 2.08616e-007
vt 0.500005 0
vt 0.5 0.5
g
usemtl material_0
f 1/1/1 2/2/2 4/4/4
f 4/4/4 2/2/2 3/3/3
f 9/9/9 5/5/5 8/8/8
f 8/8/8 5/5/5 6/6/6
f 8/8/8 6/6/6 7/7/7
f 14/14/14 10/10/10 13/13/13
f 13/13/13 10/10/10 11/11/11
f 13/13/13 11/11/11 12/12/12
f 16/16/16 18/18/18 15/15/15
f 15/15/15 18/18/18 19/19/19
f 15/15/15 19/19/19 20/20/20
f 16/16/16 17/17/17 18/18/18
f 21/21/21 22/22/22 25/25/25
f 25/25/25 22/22/22 24/24/24
f 22/22/22 23/23/23 24/24/24
f 26/26/26 27/27/27 29/29/29
f 29/29/29 27/27/27 28/28/28
f 37/37/37 34/34/34 31/31/31
f 31/31/31 34/34/34 35/35/35
f 31/31/31 35/35/35 30/30/30
f 30/30/30 35/35/35 36/36/36
f 30/30/30 36/36/36 33/33/33
f 33/33/33 36/36/36 37/37/37
f 33/33/33 37/37/37 32/32/32
f 32/32/32 37/37/37 31/31/31
f 43/43/43 38/38/38 42/42/42
f 42/42/42 38/38/38 39/39/39
f 42/42/42 39/39/39 41/41/41
f 41/41/41 39/39/39 40/40/40
f 51/51/51 48/48/48 45/45/45
f 45/45/45 48/48/48 49/49/49
f 45/45/45 49/49/49 44/44/44
f 44/44/44 49/49/49 50/50/50
f 44/44/44 50/50/50 47/47/47
f 47/47/47 50/50/50 51/51/51
f 47/47/47 51/51/51 46/46/46
f 46/46/46 51/51/51 45/45/45
f 56/56/56 52/52/52 55/55/55
f 55/55/55 52/52/52 53/53/53
f 55/55/55 53/53/53 54/54/54
f 59/59/59 62/62/62 58/58/58
f 58/58/58 62/62/62 63/63/63
f 58/58/58 63/63/63 57/57/57
f 57/57/57 63/63/63 64/64/64
f 57/57/57 64/64/64 61/61/61
f 59/59/59 60/60/60 62/62/62
f 62/62/62 60/60/60 61/61/61
f 60/60/60 57/57/57 61/61/61
f 69/69/69 65/65/65 68/68/68
f 68/68/68 65/65/65 66/66/66
f 68/68/68 66/66/66 67/67/67
f 71/71/71 72/72/72 70/70/70
f 70/70/70 72/72/72 73/73/73
f 70/70/70 73/73/73 74/74/74
f 75/75/75 76/76/76 78/78/78
f 78/78/78 76/76/76 77/77/77
f 80/80/80 81/81/81 79/79/79
f 79/79/79 81/81/81 82/82/82
f 84/84/84 85/85/85 83/83/83
f 83/83/83 85/85/85 86/86/86
f 92/92/92 87/87/87 91/91/91
f 91/91/91 87/87/87 88/88/88
f 91/91/91 88/88/88 90/90/90
f 90/90/90 88/88/88 89/89/89
f 94/94/94 95/95/95 93/93/93
f 93/93/93 95/95/95 96/96/96
f 98/98/98 99/99/99 97/97/97
f 97/97/97 99/99/99 100/100/100
f 97/97/97 100/100/100 101/101/101
f 103/103/103 104/104/104 102/102/102
f 102/102/102 104/104/104 105/105/105
f 106/106/106 107/107/107 110/110/110
f 110/110/110 107/107/107 109/109/109
f 107/107/107 108/108/108 109/109/109
f 111/111/111 112/112/112 114/114/114
f 114/114/114 112/112/112 113/113/113
f 115/115/115 116/116/116 118/118/118
f 118/118/118 116/116/116 117/117/117
f 122/122/122 124/124/124 121/121/121
f 121/121/121 124/124/124 125/125/125
f 121/121/121 125/125/125 120/120/120
f 120/120/120 125/125/125 126/126/126
f 120/120/120 126/126/126 119/119/119
f 119/119/119 126/126/126 123/123/123
f 119/119/119 123/123/123 124/124/124
f 122/122/122 119/119/119 124/124/124
f 130/130/130 127/127/127 131/131/131
f 131/131/131 127/127/127 128/128/128
f 131/131/131 128/128/128 134/134/134
f 134/134/134 128/128/128 129/129/129
f 134/134/134 129/129/129 133/133/133
f 133/133/133 129/129/129 130/130/130
f 133/133/133 130/130/130 132/132/132
f 132/132/132 130/130/130 131/131/131
f 135/135/135 136/136/136 138/138/138
f 138/138/138 136/136/136 137/137/137
f 140/140/140 142/142/142 139/139/139
f 139/139/139 142/142/142 143/143/143
f 139/139/139 143/143/143 144/144/144
f 140/140/140 141/141/141 142/142/142
f 148/148/148 149/149/149 147/147/147
f 147/147/147 149/149/149 150/150/150
f 147/147/147 150/150/150 146/146/146
f 146/146/146 150/150/150 151/151/151
f 146/146/146 151/151/151 145/145/145
f 145/145/145 151/151/151 152/152/152
f 145/145/145 152/152/152 149/149/149
f 148/148/148 145/145/145 149/149/149
f 154/154/154 155/155/155 153/153/153
f 153/153/153 155/155/155 156/156/156
f 157/157/157 158/158/158 160/160/160
f 160/160/160 158/158/158 159/159/159
